<?xml version="1.0" standalone="yes"?>

<svg version="1.1" viewBox="0.0 0.0 960.0 720.0" fill="none" stroke="none" stroke-linecap="square" stroke-miterlimit="10" xmlns="http://www.w3.org/2000/svg" xmlns:xlink="http://www.w3.org/1999/xlink"><clipPath id="p.0"><path d="m0 0l960.0 0l0 720.0l-960.0 0l0 -720.0z" clip-rule="nonzero"></path></clipPath><g clip-path="url(#p.0)"><path fill="#000000" fill-opacity="0.0" d="m0 0l960.0 0l0 720.0l-960.0 0z" fill-rule="evenodd"></path><path fill="#000000" fill-opacity="0.0" d="m430.1891 298.56348l-149.29135 -149.29135" fill-rule="evenodd"></path><path stroke="#000000" stroke-width="1.0" stroke-linejoin="round" stroke-linecap="butt" d="m430.18906 298.56348l-145.04868 -145.0487" fill-rule="evenodd"></path><path fill="#000000" stroke="#000000" stroke-width="1.0" stroke-linecap="butt" d="m286.30832 152.34683l-4.3768616 -2.0409698l2.040985 4.3768616z" fill-rule="evenodd"></path><path fill="#000000" fill-opacity="0.0" d="m521.65344 298.56348l148.81891 -148.81891" fill-rule="evenodd"></path><path stroke="#000000" stroke-width="1.0" stroke-linejoin="round" stroke-linecap="butt" d="m521.65344 298.56348l144.57623 -144.57626" fill-rule="evenodd"></path><path fill="#000000" stroke="#000000" stroke-width="1.0" stroke-linecap="butt" d="m667.39764 155.15517l2.0410156 -4.376877l-4.376892 2.0409698z" fill-rule="evenodd"></path><path fill="#ffd966" d="m233.66235 187.47226c4.528427 17.207352 7.0944824 -23.247147 48.0 -36.228348c40.905518 -12.981186 132.67847 -41.65879 197.43307 -41.65879c64.75461 0 150.6417 29.130363 191.09445 41.65879c40.45276 12.528442 45.88629 45.285217 51.62207 33.51181c5.735779 -11.773392 9.056885 -76.529305 -17.207336 -104.15222c-26.264221 -27.622925 -89.96283 -49.962822 -140.37799 -61.585304c-50.4151 -11.622484 -110.49036 -12.9798765 -162.11282 -8.149606c-51.622498 4.8302717 -119.546814 7.6972876 -147.62206 37.131233c-28.075241 29.433949 -25.357834 122.26509 -20.829391 139.47244z" fill-rule="evenodd"></path><path stroke="#000000" stroke-width="1.0" stroke-linejoin="round" stroke-linecap="butt" d="m233.66235 187.47226c4.528427 17.207352 7.0944824 -23.247147 48.0 -36.228348c40.905518 -12.981186 132.67847 -41.65879 197.43307 -41.65879c64.75461 0 150.6417 29.130363 191.09445 41.65879c40.45276 12.528442 45.88629 45.285217 51.62207 33.51181c5.735779 -11.773392 9.056885 -76.529305 -17.207336 -104.15222c-26.264221 -27.622925 -89.96283 -49.962822 -140.37799 -61.585304c-50.4151 -11.622484 -110.49036 -12.9798765 -162.11282 -8.149606c-51.622498 4.8302717 -119.546814 7.6972876 -147.62206 37.131233c-28.075241 29.433949 -25.357834 122.26509 -20.829391 139.47244z" fill-rule="evenodd"></path></g></svg>

