<?xml version="1.0" standalone="yes"?>

<svg version="1.1" viewBox="0.0 0.0 960.0 720.0" fill="none" stroke="none" stroke-linecap="square" stroke-miterlimit="10" xmlns="http://www.w3.org/2000/svg" xmlns:xlink="http://www.w3.org/1999/xlink"><clipPath id="p.0"><path d="m0 0l960.0 0l0 720.0l-960.0 0l0 -720.0z" clip-rule="nonzero"></path></clipPath><g clip-path="url(#p.0)"><path fill="#000000" fill-opacity="0.0" d="m0 0l960.0 0l0 720.0l-960.0 0z" fill-rule="evenodd"></path><path fill="#351c75" d="m702.8058 170.26247l-403.937 0l0 219.1811l403.937 0z" fill-rule="evenodd"></path><path stroke="#000000" stroke-width="1.0" stroke-linejoin="round" stroke-linecap="butt" d="m702.8058 170.26247l-403.937 0l0 219.1811l403.937 0z" fill-rule="evenodd"></path><path fill="#000000" fill-opacity="0.0" d="m499.0315 277.13123l163.02362 0" fill-rule="evenodd"></path><path stroke="#000000" stroke-width="16.0" stroke-linejoin="round" stroke-linecap="butt" d="m499.0315 277.13123l67.02362 0" fill-rule="evenodd"></path><path fill="#000000" stroke="#000000" stroke-width="16.0" stroke-linecap="butt" d="m566.0551 303.55896l72.60956 -26.427734l-72.60956 -26.427704z" fill-rule="evenodd"></path><path fill="#000000" fill-opacity="0.0" d="m451.937 208.30183l-79.68503 0l0 124.063l79.68503 0z" fill-rule="evenodd"></path><path fill="#000000" d="m429.5801 301.35245l0 8.109375l-45.421875 0q-0.09375 -3.046875 0.984375 -5.859375q1.734375 -4.640625 5.546875 -9.140625q3.828125 -4.5 11.046875 -10.40625q11.203125 -9.1875 15.140625 -14.546875q3.9375 -5.375 3.9375 -10.15625q0 -5.0156097 -3.59375 -8.45311q-3.578125 -3.453125 -9.34375 -3.453125q-6.09375 0 -9.75 3.65625q-3.65625 3.65625 -3.703125 10.124985l-8.671875 -0.890625q0.890625 -9.70311 6.703125 -14.781235q5.8125 -5.09375 15.609375 -5.09375q9.890625 0 15.65625 5.484375q5.765625 5.484375 5.765625 13.593735q0 4.125 -1.6875 8.109375q-1.6875 3.984375 -5.609375 8.390625q-3.90625 4.40625 -13.0 12.09375q-7.59375 6.375 -9.75 8.65625q-2.15625 2.265625 -3.5625 4.5625l33.703125 0z" fill-rule="nonzero"></path></g></svg>

