<?xml version="1.0" standalone="yes"?>

<svg version="1.1" viewBox="0.0 0.0 960.0 720.0" fill="none" stroke="none" stroke-linecap="square" stroke-miterlimit="10" xmlns="http://www.w3.org/2000/svg" xmlns:xlink="http://www.w3.org/1999/xlink"><clipPath id="p.0"><path d="m0 0l960.0 0l0 720.0l-960.0 0l0 -720.0z" clip-rule="nonzero"></path></clipPath><g clip-path="url(#p.0)"><path fill="#000000" fill-opacity="0.0" d="m0 0l960.0 0l0 720.0l-960.0 0z" fill-rule="evenodd"></path><path fill="#990000" d="m298.86877 170.26247l403.937 0l0 219.1811l-403.937 0z" fill-rule="evenodd"></path><path stroke="#000000" stroke-width="1.0" stroke-linejoin="round" stroke-linecap="butt" d="m298.86877 170.26247l403.937 0l0 219.1811l-403.937 0z" fill-rule="evenodd"></path><path fill="#000000" fill-opacity="0.0" d="m502.64304 277.13123l-163.02362 0" fill-rule="evenodd"></path><path stroke="#000000" stroke-width="16.0" stroke-linejoin="round" stroke-linecap="butt" d="m502.64304 277.13123l-67.02362 0" fill-rule="evenodd"></path><path fill="#000000" stroke="#000000" stroke-width="16.0" stroke-linecap="butt" d="m435.61942 250.70352l-72.60956 26.427704l72.60956 26.427734z" fill-rule="evenodd"></path><path fill="#000000" fill-opacity="0.0" d="m549.73755 208.30183l79.685 0l0 124.063l-79.685 0z" fill-rule="evenodd"></path><path fill="#000000" d="m594.5032 309.46182l-8.4375 0l0 -53.76561q-3.046875 2.9062347 -8.0 5.8124847q-4.9375 2.90625 -8.875 4.359375l0 -8.15625q7.078125 -3.3281097 12.375 -8.062485q5.296875 -4.734375 7.5 -9.1875l5.4375 0l0 68.999985z" fill-rule="nonzero"></path></g></svg>

